<?xml version="1.0" encoding="UTF-8" standalone="no"?>
<!DOCTYPE svg PUBLIC "-//W3C//DTD SVG 1.1//EN"
 "http://www.w3.org/Graphics/SVG/1.1/DTD/svg11.dtd">
<!-- Generated by graphviz version 2.43.0 (0)
 -->
<!-- Title: G Pages: 1 -->
<svg width="1717pt" height="805pt"
 viewBox="0.00 0.00 1716.85 805.10" xmlns="http://www.w3.org/2000/svg" xmlns:xlink="http://www.w3.org/1999/xlink">
<g id="graph0" class="graph" transform="scale(1 1) rotate(0) translate(4 801.1)">
<title>G</title><style>.edge>path:hover{stroke-width:8}</style>
<polygon fill="white" stroke="transparent" points="-4,4 -4,-801.1 1712.85,-801.1 1712.85,4 -4,4"/>
<!-- astropy -->
<g id="node1" class="node">
<title>astropy</title><style>.edge>path:hover{stroke-width:8}</style>
<ellipse fill="#f90606" stroke="black" cx="1100.3" cy="-422.48" rx="31.4" ry="18"/>
<text text-anchor="middle" x="1100.3" y="-419.98" font-family="Helvetica,sans-Serif" font-size="10.00" fill="#ffffff">astropy</text>
</g>
<!-- jwstnoobfriend_box -->
<g id="node13" class="node">
<title>jwstnoobfriend_box</title><style>.edge>path:hover{stroke-width:8}</style>
<ellipse fill="#6d8217" stroke="black" cx="893.3" cy="-250.07" rx="65.11" ry="21.43"/>
<text text-anchor="middle" x="893.3" y="-253.07" font-family="Helvetica,sans-Serif" font-size="10.00" fill="#ffffff">jwstnoobfriend.</text>
<text text-anchor="middle" x="893.3" y="-242.07" font-family="Helvetica,sans-Serif" font-size="10.00" fill="#ffffff">box</text>
</g>
<!-- astropy&#45;&gt;jwstnoobfriend_box -->
<g id="edge1" class="edge">
<title>astropy&#45;&gt;jwstnoobfriend_box</title><style>.edge>path:hover{stroke-width:8}</style>
<path fill="none" stroke="black" d="M1094.58,-404.46C1088.21,-386.79 1076.87,-358.78 1062.3,-337.27"/>
<path fill="none" stroke="black" d="M1062.3,-335.27C1037.83,-299.14 993.12,-277.82 955.83,-265.67"/>
<polygon fill="#f90606" stroke="black" points="956.62,-262.25 946.03,-262.63 954.54,-268.94 956.62,-262.25"/>
</g>
<!-- jwstnoobfriend_manager -->
<g id="node15" class="node">
<title>jwstnoobfriend_manager</title><style>.edge>path:hover{stroke-width:8}</style>
<ellipse fill="#6f8320" stroke="black" cx="959.3" cy="-171.64" rx="65.11" ry="21.43"/>
<text text-anchor="middle" x="959.3" y="-174.64" font-family="Helvetica,sans-Serif" font-size="10.00" fill="#ffffff">jwstnoobfriend.</text>
<text text-anchor="middle" x="959.3" y="-163.64" font-family="Helvetica,sans-Serif" font-size="10.00" fill="#ffffff">manager</text>
</g>
<!-- astropy&#45;&gt;jwstnoobfriend_manager -->
<g id="edge2" class="edge">
<title>astropy&#45;&gt;jwstnoobfriend_manager</title><style>.edge>path:hover{stroke-width:8}</style>
<path fill="none" stroke="black" d="M1062.3,-335.27C1041.31,-304.28 1048.65,-285.92 1062.3,-251.07"/>
<path fill="none" stroke="black" d="M1062.3,-249.07C1072.95,-221.84 1045.59,-202.44 1016.4,-190"/>
<polygon fill="#f90606" stroke="black" points="1017.48,-186.66 1006.9,-186.2 1014.89,-193.16 1017.48,-186.66"/>
</g>
<!-- jwstnoobfriend_reduction -->
<g id="node16" class="node">
<title>jwstnoobfriend_reduction</title><style>.edge>path:hover{stroke-width:8}</style>
<ellipse fill="#637326" stroke="black" cx="1145.3" cy="-93.21" rx="65.11" ry="21.43"/>
<text text-anchor="middle" x="1145.3" y="-96.21" font-family="Helvetica,sans-Serif" font-size="10.00" fill="#ffffff">jwstnoobfriend.</text>
<text text-anchor="middle" x="1145.3" y="-85.21" font-family="Helvetica,sans-Serif" font-size="10.00" fill="#ffffff">reduction</text>
</g>
<!-- astropy&#45;&gt;jwstnoobfriend_reduction -->
<g id="edge3" class="edge">
<title>astropy&#45;&gt;jwstnoobfriend_reduction</title><style>.edge>path:hover{stroke-width:8}</style>
<path fill="none" stroke="black" d="M1062.3,-249.07C1104.33,-141.66 1396,-249.83 1310.3,-172.64"/>
</g>
<!-- astropy_convolution -->
<g id="node2" class="node">
<title>astropy_convolution</title><style>.edge>path:hover{stroke-width:8}</style>
<ellipse fill="#b34c4c" stroke="black" cx="1614.3" cy="-250.07" rx="52.15" ry="21.43"/>
<text text-anchor="middle" x="1614.3" y="-253.07" font-family="Helvetica,sans-Serif" font-size="10.00" fill="#ffffff">astropy.</text>
<text text-anchor="middle" x="1614.3" y="-242.07" font-family="Helvetica,sans-Serif" font-size="10.00" fill="#ffffff">convolution</text>
</g>
<!-- astropy_convolution&#45;&gt;jwstnoobfriend_reduction -->
<g id="edge4" class="edge">
<title>astropy_convolution&#45;&gt;jwstnoobfriend_reduction</title><style>.edge>path:hover{stroke-width:8}</style>
<path fill="none" stroke="black" d="M1574.28,-236.35C1565.73,-233.77 1556.74,-231.14 1548.3,-228.85 1443.39,-200.43 1392.26,-244.02 1310.3,-172.64"/>
</g>
<!-- astropy_convolution_convolve -->
<g id="node3" class="node">
<title>astropy_convolution_convolve</title><style>.edge>path:hover{stroke-width:8}</style>
<ellipse fill="#b03a3a" stroke="black" cx="1612.3" cy="-336.27" rx="54.39" ry="28.98"/>
<text text-anchor="middle" x="1612.3" y="-344.77" font-family="Helvetica,sans-Serif" font-size="10.00" fill="#ffffff">astropy.</text>
<text text-anchor="middle" x="1612.3" y="-333.77" font-family="Helvetica,sans-Serif" font-size="10.00" fill="#ffffff">convolution.</text>
<text text-anchor="middle" x="1612.3" y="-322.77" font-family="Helvetica,sans-Serif" font-size="10.00" fill="#ffffff">convolve</text>
</g>
<!-- astropy_convolution_convolve&#45;&gt;astropy_convolution -->
<g id="edge5" class="edge">
<title>astropy_convolution_convolve&#45;&gt;astropy_convolution</title><style>.edge>path:hover{stroke-width:8}</style>
<path fill="none" stroke="black" d="M1612.96,-307.23C1613.16,-299.02 1613.37,-290.01 1613.57,-281.65"/>
<polygon fill="#b03a3a" stroke="black" points="1617.07,-281.61 1613.81,-271.53 1610.07,-281.44 1617.07,-281.61"/>
</g>
<!-- astropy_convolution_convolve&#45;&gt;jwstnoobfriend_reduction -->
<g id="edge6" class="edge">
<title>astropy_convolution_convolve&#45;&gt;jwstnoobfriend_reduction</title><style>.edge>path:hover{stroke-width:8}</style>
<path fill="none" stroke="black" d="M1652.35,-316.6C1679.25,-301.2 1707.55,-277.63 1694.3,-251.07"/>
<path fill="none" stroke="black" d="M1694.3,-249.07C1616.62,-93.35 1439.6,-289.09 1310.3,-172.64"/>
</g>
<!-- astropy_coordinates -->
<g id="node4" class="node">
<title>astropy_coordinates</title><style>.edge>path:hover{stroke-width:8}</style>
<ellipse fill="#b65353" stroke="black" cx="806.3" cy="-422.48" rx="52.15" ry="21.43"/>
<text text-anchor="middle" x="806.3" y="-425.48" font-family="Helvetica,sans-Serif" font-size="10.00" fill="#ffffff">astropy.</text>
<text text-anchor="middle" x="806.3" y="-414.48" font-family="Helvetica,sans-Serif" font-size="10.00" fill="#ffffff">coordinates</text>
</g>
<!-- astropy_coordinates&#45;&gt;jwstnoobfriend_box -->
<g id="edge7" class="edge">
<title>astropy_coordinates&#45;&gt;jwstnoobfriend_box</title><style>.edge>path:hover{stroke-width:8}</style>
<path fill="none" stroke="black" d="M773.81,-405.74C742.3,-388.54 702.47,-360.35 726.3,-337.27"/>
</g>
<!-- astropy_stats -->
<g id="node5" class="node">
<title>astropy_stats</title><style>.edge>path:hover{stroke-width:8}</style>
<ellipse fill="#b83d3d" stroke="black" cx="1175.3" cy="-250.07" rx="46.51" ry="18"/>
<text text-anchor="middle" x="1175.3" y="-247.57" font-family="Helvetica,sans-Serif" font-size="10.00" fill="#ffffff">astropy.stats</text>
</g>
<!-- astropy_stats&#45;&gt;jwstnoobfriend_reduction -->
<g id="edge8" class="edge">
<title>astropy_stats&#45;&gt;jwstnoobfriend_reduction</title><style>.edge>path:hover{stroke-width:8}</style>
<path fill="none" stroke="black" d="M1208.38,-237.21C1253.99,-220.05 1328.63,-188.6 1310.3,-172.64"/>
</g>
<!-- astropy_units -->
<g id="node6" class="node">
<title>astropy_units</title><style>.edge>path:hover{stroke-width:8}</style>
<ellipse fill="#c43131" stroke="black" cx="1122.3" cy="-500.9" rx="46.51" ry="18"/>
<text text-anchor="middle" x="1122.3" y="-498.4" font-family="Helvetica,sans-Serif" font-size="10.00" fill="#ffffff">astropy.units</text>
</g>
<!-- astropy_units&#45;&gt;astropy_convolution_convolve -->
<g id="edge9" class="edge">
<title>astropy_units&#45;&gt;astropy_convolution_convolve</title><style>.edge>path:hover{stroke-width:8}</style>
<path fill="none" stroke="black" d="M1159.3,-421.48C1169.42,-411.89 1170.45,-406.68 1183.3,-401.26 1333.49,-337.91 1390.57,-406.43 1548.3,-365.26 1553.5,-363.9 1558.83,-362.17 1564.07,-360.24"/>
<polygon fill="#c43131" stroke="black" points="1565.35,-363.5 1573.39,-356.59 1562.8,-356.98 1565.35,-363.5"/>
</g>
<!-- astropy_units&#45;&gt;jwstnoobfriend_manager -->
<g id="edge10" class="edge">
<title>astropy_units&#45;&gt;jwstnoobfriend_manager</title><style>.edge>path:hover{stroke-width:8}</style>
<path fill="none" stroke="black" d="M1126.68,-482.88C1131.87,-465.81 1142.06,-439.79 1159.3,-423.48"/>
<path fill="none" stroke="black" d="M1159.3,-421.48C1226.99,-357.38 1140.85,-296.11 1076.3,-228.85 1059.79,-211.65 1036.94,-199.07 1015.81,-190.22"/>
<polygon fill="#c43131" stroke="black" points="1016.84,-186.86 1006.26,-186.42 1014.25,-193.37 1016.84,-186.86"/>
</g>
<!-- jwst -->
<g id="node7" class="node">
<title>jwst</title><style>.edge>path:hover{stroke-width:8}</style>
<ellipse fill="#ce933b" stroke="black" cx="986.3" cy="-422.48" rx="27" ry="18"/>
<text text-anchor="middle" x="986.3" y="-419.98" font-family="Helvetica,sans-Serif" font-size="10.00" fill="#000000">jwst</text>
</g>
<!-- jwst&#45;&gt;jwstnoobfriend_box -->
<g id="edge11" class="edge">
<title>jwst&#45;&gt;jwstnoobfriend_box</title><style>.edge>path:hover{stroke-width:8}</style>
<path fill="none" stroke="black" d="M988.71,-404.4C990.59,-387.17 992.02,-359.95 986.3,-337.27"/>
<path fill="none" stroke="black" d="M986.3,-335.27C979.64,-308.91 957.37,-288.24 936.29,-273.98"/>
<polygon fill="#ce933b" stroke="black" points="938,-270.91 927.69,-268.45 934.21,-276.8 938,-270.91"/>
</g>
<!-- jwst&#45;&gt;jwstnoobfriend_reduction -->
<g id="edge12" class="edge">
<title>jwst&#45;&gt;jwstnoobfriend_reduction</title><style>.edge>path:hover{stroke-width:8}</style>
<path fill="none" stroke="black" d="M986.3,-335.27C972.89,-282.2 1003.98,-260.98 1048.3,-228.85 1144.72,-158.95 1398.79,-252.34 1310.3,-172.64"/>
<path fill="none" stroke="black" d="M1310.3,-170.64C1278.93,-143.43 1236.24,-124.01 1202.15,-111.55"/>
<polygon fill="#ce933b" stroke="black" points="1202.91,-108.11 1192.32,-108.07 1200.57,-114.71 1202.91,-108.11"/>
</g>
<!-- jwst_datamodels -->
<g id="node8" class="node">
<title>jwst_datamodels</title><style>.edge>path:hover{stroke-width:8}</style>
<ellipse fill="#b68e53" stroke="black" cx="646.3" cy="-422.48" rx="52.15" ry="21.43"/>
<text text-anchor="middle" x="646.3" y="-425.48" font-family="Helvetica,sans-Serif" font-size="10.00" fill="#000000">jwst.</text>
<text text-anchor="middle" x="646.3" y="-414.48" font-family="Helvetica,sans-Serif" font-size="10.00" fill="#000000">datamodels</text>
</g>
<!-- jwst_datamodels&#45;&gt;jwstnoobfriend_box -->
<g id="edge13" class="edge">
<title>jwst_datamodels&#45;&gt;jwstnoobfriend_box</title><style>.edge>path:hover{stroke-width:8}</style>
<path fill="none" stroke="black" d="M663.65,-402.32C679.57,-384.96 703.99,-358.88 726.3,-337.27"/>
</g>
<!-- jwst_outlier_detection -->
<g id="node9" class="node">
<title>jwst_outlier_detection</title><style>.edge>path:hover{stroke-width:8}</style>
<ellipse fill="#b68e53" stroke="black" cx="1310.3" cy="-250.07" rx="70.01" ry="21.43"/>
<text text-anchor="middle" x="1310.3" y="-253.07" font-family="Helvetica,sans-Serif" font-size="10.00" fill="#000000">jwst.</text>
<text text-anchor="middle" x="1310.3" y="-242.07" font-family="Helvetica,sans-Serif" font-size="10.00" fill="#000000">outlier_detection</text>
</g>
<!-- jwst_outlier_detection&#45;&gt;jwstnoobfriend_reduction -->
<g id="edge14" class="edge">
<title>jwst_outlier_detection&#45;&gt;jwstnoobfriend_reduction</title><style>.edge>path:hover{stroke-width:8}</style>
<path fill="none" stroke="black" d="M1317.63,-228.73C1322.57,-210.99 1325.7,-186.06 1310.3,-172.64"/>
</g>
<!-- jwst_outlier_detection_utils -->
<g id="node10" class="node">
<title>jwst_outlier_detection_utils</title><style>.edge>path:hover{stroke-width:8}</style>
<ellipse fill="#ac8449" stroke="black" cx="1272.3" cy="-587.11" rx="72.25" ry="28.98"/>
<text text-anchor="middle" x="1272.3" y="-595.61" font-family="Helvetica,sans-Serif" font-size="10.00" fill="#000000">jwst.</text>
<text text-anchor="middle" x="1272.3" y="-584.61" font-family="Helvetica,sans-Serif" font-size="10.00" fill="#000000">outlier_detection.</text>
<text text-anchor="middle" x="1272.3" y="-573.61" font-family="Helvetica,sans-Serif" font-size="10.00" fill="#000000">utils</text>
</g>
<!-- jwst_outlier_detection_utils&#45;&gt;jwstnoobfriend_reduction -->
<g id="edge15" class="edge">
<title>jwst_outlier_detection_utils&#45;&gt;jwstnoobfriend_reduction</title><style>.edge>path:hover{stroke-width:8}</style>
<path fill="none" stroke="black" d="M1331.46,-570.39C1466.36,-531.28 1778.75,-420.37 1694.3,-251.07"/>
</g>
<!-- jwstnoobfriend -->
<g id="node11" class="node">
<title>jwstnoobfriend</title><style>.edge>path:hover{stroke-width:8}</style>
<ellipse fill="#92a446" stroke="black" cx="1098.3" cy="-18" rx="52.28" ry="18"/>
<text text-anchor="middle" x="1098.3" y="-15.5" font-family="Helvetica,sans-Serif" font-size="10.00" fill="#000000">jwstnoobfriend</text>
</g>
<!-- jwstnoobfriend__logging -->
<g id="node12" class="node">
<title>jwstnoobfriend__logging</title><style>.edge>path:hover{stroke-width:8}</style>
<ellipse fill="#b1ce3b" stroke="black" cx="232.3" cy="-336.27" rx="65.11" ry="21.43"/>
<text text-anchor="middle" x="232.3" y="-339.27" font-family="Helvetica,sans-Serif" font-size="10.00" fill="#000000">jwstnoobfriend.</text>
<text text-anchor="middle" x="232.3" y="-328.27" font-family="Helvetica,sans-Serif" font-size="10.00" fill="#000000">_logging</text>
</g>
<!-- jwstnoobfriend__logging&#45;&gt;jwstnoobfriend_box -->
<g id="edge16" class="edge">
<title>jwstnoobfriend__logging&#45;&gt;jwstnoobfriend_box</title><style>.edge>path:hover{stroke-width:8}</style>
<path fill="none" stroke="black" d="M280.96,-322.11C301.86,-316.85 326.65,-311.14 349.3,-307.28 516.19,-278.82 714.51,-262.73 819.52,-255.59"/>
<polygon fill="#b1ce3b" stroke="black" points="819.95,-259.07 829.69,-254.91 819.48,-252.09 819.95,-259.07"/>
</g>
<!-- jwstnoobfriend_cli -->
<g id="node14" class="node">
<title>jwstnoobfriend_cli</title><style>.edge>path:hover{stroke-width:8}</style>
<ellipse fill="#98ac49" stroke="black" cx="195.3" cy="-250.07" rx="65.11" ry="21.43"/>
<text text-anchor="middle" x="195.3" y="-253.07" font-family="Helvetica,sans-Serif" font-size="10.00" fill="#000000">jwstnoobfriend.</text>
<text text-anchor="middle" x="195.3" y="-242.07" font-family="Helvetica,sans-Serif" font-size="10.00" fill="#000000">cli</text>
</g>
<!-- jwstnoobfriend__logging&#45;&gt;jwstnoobfriend_cli -->
<g id="edge17" class="edge">
<title>jwstnoobfriend__logging&#45;&gt;jwstnoobfriend_cli</title><style>.edge>path:hover{stroke-width:8}</style>
<path fill="none" stroke="black" d="M223.34,-314.89C218.84,-304.65 213.3,-292.05 208.34,-280.76"/>
<polygon fill="#b1ce3b" stroke="black" points="211.4,-279.01 204.17,-271.26 204.99,-281.83 211.4,-279.01"/>
</g>
<!-- jwstnoobfriend_box&#45;&gt;jwstnoobfriend -->
<g id="edge18" class="edge">
<title>jwstnoobfriend_box&#45;&gt;jwstnoobfriend</title><style>.edge>path:hover{stroke-width:8}</style>
<path fill="none" stroke="black" d="M941.22,-235.57C969.51,-226.25 1005.18,-212.05 1033.3,-192.85 1043.48,-185.9 1043.25,-181.02 1052.3,-172.64"/>
<path fill="none" stroke="black" d="M1052.3,-170.64C1077.22,-147.56 1034.77,-123.31 1052.3,-94.21"/>
</g>
<!-- jwstnoobfriend_box&#45;&gt;jwstnoobfriend_manager -->
<g id="edge19" class="edge">
<title>jwstnoobfriend_box&#45;&gt;jwstnoobfriend_manager</title><style>.edge>path:hover{stroke-width:8}</style>
<path fill="none" stroke="black" d="M910.29,-229.38C917.99,-220.47 927.22,-209.78 935.59,-200.09"/>
<polygon fill="#6d8217" stroke="black" points="938.47,-202.11 942.36,-192.25 933.17,-197.54 938.47,-202.11"/>
</g>
<!-- jwstnoobfriend_box&#45;&gt;jwstnoobfriend_reduction -->
<g id="edge20" class="edge">
<title>jwstnoobfriend_box&#45;&gt;jwstnoobfriend_reduction</title><style>.edge>path:hover{stroke-width:8}</style>
<path fill="none" stroke="black" d="M1052.3,-170.64C1071.71,-152.66 1094.67,-133.77 1112.92,-119.27"/>
<polygon fill="#6d8217" stroke="black" points="1115.26,-121.88 1120.94,-112.94 1110.92,-116.39 1115.26,-121.88"/>
</g>
<!-- jwstnoobfriend_manager&#45;&gt;jwstnoobfriend -->
<g id="edge21" class="edge">
<title>jwstnoobfriend_manager&#45;&gt;jwstnoobfriend</title><style>.edge>path:hover{stroke-width:8}</style>
<path fill="none" stroke="black" d="M990.43,-152.93C1011.18,-139.49 1037.31,-119.1 1052.3,-94.21"/>
<path fill="none" stroke="black" d="M1052.3,-92.21C1061.95,-76.18 1073.11,-58.4 1082.02,-44.37"/>
<polygon fill="#6f8320" stroke="black" points="1085.09,-46.07 1087.52,-35.75 1079.19,-42.31 1085.09,-46.07"/>
</g>
<!-- jwstnoobfriend_manager&#45;&gt;jwstnoobfriend_reduction -->
<g id="edge22" class="edge">
<title>jwstnoobfriend_manager&#45;&gt;jwstnoobfriend_reduction</title><style>.edge>path:hover{stroke-width:8}</style>
<path fill="none" stroke="black" d="M998.29,-154.62C1026.93,-142.85 1066.04,-126.78 1096.71,-114.17"/>
<polygon fill="#6f8320" stroke="black" points="1098.44,-117.25 1106.35,-110.21 1095.77,-110.78 1098.44,-117.25"/>
</g>
<!-- jwstnoobfriend_reduction&#45;&gt;jwstnoobfriend -->
<g id="edge23" class="edge">
<title>jwstnoobfriend_reduction&#45;&gt;jwstnoobfriend</title><style>.edge>path:hover{stroke-width:8}</style>
<path fill="none" stroke="black" d="M1132.45,-72.21C1126.99,-63.7 1120.55,-53.67 1114.75,-44.63"/>
<polygon fill="#637326" stroke="black" points="1117.56,-42.53 1109.21,-36 1111.67,-46.31 1117.56,-42.53"/>
</g>
<!-- matplotlib -->
<g id="node17" class="node">
<title>matplotlib</title><style>.edge>path:hover{stroke-width:8}</style>
<ellipse fill="#47d024" stroke="black" cx="203.3" cy="-422.48" rx="39.38" ry="18"/>
<text text-anchor="middle" x="203.3" y="-419.98" font-family="Helvetica,sans-Serif" font-size="10.00" fill="#000000">matplotlib</text>
</g>
<!-- matplotlib&#45;&gt;jwstnoobfriend_box -->
<g id="edge24" class="edge">
<title>matplotlib&#45;&gt;jwstnoobfriend_box</title><style>.edge>path:hover{stroke-width:8}</style>
<path fill="none" stroke="black" d="M232.49,-410.25C269.67,-395.82 330.22,-371.84 339.3,-365.26 352.57,-355.65 349.16,-345.56 363.3,-337.27"/>
<path fill="none" stroke="black" d="M363.3,-335.27C376.27,-327.67 369.41,-315.04 382.3,-307.28 453.87,-264.18 694.1,-254.05 817.99,-251.73"/>
<polygon fill="#47d024" stroke="black" points="818.22,-255.22 828.15,-251.55 818.1,-248.22 818.22,-255.22"/>
</g>
<!-- matplotlib&#45;&gt;jwstnoobfriend_manager -->
<g id="edge25" class="edge">
<title>matplotlib&#45;&gt;jwstnoobfriend_manager</title><style>.edge>path:hover{stroke-width:8}</style>
<path fill="none" stroke="black" d="M232.26,-410.13C254.28,-400.51 284.42,-385.11 306.3,-365.26 317.43,-355.16 320.74,-351.6 325.3,-337.27"/>
<path fill="none" stroke="black" d="M325.3,-335.27C336.64,-299.61 309.57,-285.02 325.3,-251.07"/>
<path fill="none" stroke="black" d="M325.3,-249.07C348.56,-198.83 721.48,-180.46 884.26,-174.81"/>
<polygon fill="#47d024" stroke="black" points="884.8,-178.3 894.68,-174.46 884.56,-171.3 884.8,-178.3"/>
</g>
<!-- matplotlib_pyplot -->
<g id="node18" class="node">
<title>matplotlib_pyplot</title><style>.edge>path:hover{stroke-width:8}</style>
<ellipse fill="#4ec431" stroke="black" cx="84.3" cy="-500.9" rx="49.49" ry="21.43"/>
<text text-anchor="middle" x="84.3" y="-503.9" font-family="Helvetica,sans-Serif" font-size="10.00" fill="#000000">matplotlib.</text>
<text text-anchor="middle" x="84.3" y="-492.9" font-family="Helvetica,sans-Serif" font-size="10.00" fill="#000000">pyplot</text>
</g>
<!-- matplotlib_pyplot&#45;&gt;jwstnoobfriend_box -->
<g id="edge26" class="edge">
<title>matplotlib_pyplot&#45;&gt;jwstnoobfriend_box</title><style>.edge>path:hover{stroke-width:8}</style>
<path fill="none" stroke="black" d="M128.92,-491.46C164.25,-483.29 213.74,-468.43 251.3,-443.69 272.43,-429.76 270.47,-418.18 289.3,-401.26 309.66,-382.96 319.13,-383.79 339.3,-365.26 351.36,-354.18 349.16,-345.56 363.3,-337.27"/>
</g>
<!-- matplotlib_pyplot&#45;&gt;jwstnoobfriend_manager -->
<g id="edge27" class="edge">
<title>matplotlib_pyplot&#45;&gt;jwstnoobfriend_manager</title><style>.edge>path:hover{stroke-width:8}</style>
<path fill="none" stroke="black" d="M71.68,-480.33C62.72,-465.38 51.24,-443.93 45.3,-423.48"/>
</g>
<!-- matplotlib_pyplot&#45;&gt;matplotlib -->
<g id="edge28" class="edge">
<title>matplotlib_pyplot&#45;&gt;matplotlib</title><style>.edge>path:hover{stroke-width:8}</style>
<path fill="none" stroke="black" d="M110.71,-482.94C129.03,-471.17 153.49,-455.46 172.67,-443.14"/>
<polygon fill="#4ec431" stroke="black" points="174.82,-445.92 181.34,-437.57 171.04,-440.03 174.82,-445.92"/>
</g>
<!-- nbformat -->
<g id="node19" class="node">
<title>nbformat</title><style>.edge>path:hover{stroke-width:8}</style>
<ellipse fill="#40c073" stroke="black" cx="109.3" cy="-422.48" rx="36.49" ry="18"/>
<text text-anchor="middle" x="109.3" y="-419.98" font-family="Helvetica,sans-Serif" font-size="10.00" fill="#000000">nbformat</text>
</g>
<!-- nbformat&#45;&gt;jwstnoobfriend_cli -->
<g id="edge29" class="edge">
<title>nbformat&#45;&gt;jwstnoobfriend_cli</title><style>.edge>path:hover{stroke-width:8}</style>
<path fill="none" stroke="black" d="M115.53,-404.4C124.08,-381.68 140.4,-340.52 158.3,-307.28 163.36,-297.87 169.53,-288 175.37,-279.21"/>
<polygon fill="#40c073" stroke="black" points="178.34,-281.07 181.05,-270.83 172.54,-277.15 178.34,-281.07"/>
</g>
<!-- numpy -->
<g id="node20" class="node">
<title>numpy</title><style>.edge>path:hover{stroke-width:8}</style>
<ellipse fill="#06f9f9" stroke="black" cx="1065.3" cy="-779.1" rx="29.37" ry="18"/>
<text text-anchor="middle" x="1065.3" y="-776.6" font-family="Helvetica,sans-Serif" font-size="10.00" fill="#000000">numpy</text>
</g>
<!-- numpy&#45;&gt;astropy_convolution_convolve -->
<g id="edge30" class="edge">
<title>numpy&#45;&gt;astropy_convolution_convolve</title><style>.edge>path:hover{stroke-width:8}</style>
<path fill="none" stroke="black" d="M1065.3,-724.1C1040.86,-676.99 1133.46,-707.27 1172.3,-671.1"/>
<path fill="none" stroke="black" d="M1172.3,-669.1C1208.92,-634.99 1161.87,-598.59 1191.3,-558.11 1215.44,-524.9 1456.43,-409.88 1562.56,-360.31"/>
<polygon fill="#06f9f9" stroke="black" points="1564.21,-363.4 1571.79,-356 1561.25,-357.06 1564.21,-363.4"/>
</g>
<!-- numpy&#45;&gt;jwst_outlier_detection_utils -->
<g id="edge31" class="edge">
<title>numpy&#45;&gt;jwst_outlier_detection_utils</title><style>.edge>path:hover{stroke-width:8}</style>
<path fill="none" stroke="black" d="M1172.3,-669.1C1190.95,-651.72 1212.85,-633.75 1231.38,-619.15"/>
<polygon fill="#06f9f9" stroke="black" points="1233.65,-621.83 1239.37,-612.91 1229.34,-616.31 1233.65,-621.83"/>
</g>
<!-- numpy&#45;&gt;jwstnoobfriend_manager -->
<g id="edge32" class="edge">
<title>numpy&#45;&gt;jwstnoobfriend_manager</title><style>.edge>path:hover{stroke-width:8}</style>
<path fill="none" stroke="black" d="M1069.16,-760.92C1070.71,-750.05 1070.97,-736.04 1065.3,-725.1"/>
<path fill="none" stroke="black" d="M1065.3,-724.1C1030.19,-656.41 800.93,-686.71 726.3,-671.1"/>
<path fill="none" stroke="black" d="M726.3,-669.1C585.54,-639.66 199.66,-673.94 84.3,-588.11"/>
<path fill="none" stroke="black" d="M84.3,-586.11C53.5,-563.19 40.11,-557.93 26.3,-522.11 19.51,-504.52 23.24,-498.29 26.3,-479.69 30.57,-453.67 52.66,-448.8 45.3,-423.48"/>
<path fill="none" stroke="black" d="M45.3,-421.48C35.48,-393.73 18.38,-393.56 10.3,-365.26 -3.83,-315.86 -6.48,-288.89 28.3,-251.07"/>
<path fill="none" stroke="black" d="M28.3,-249.07C83.03,-184.08 672.06,-174.28 883.93,-172.86"/>
<polygon fill="#06f9f9" stroke="black" points="884.05,-176.36 894.03,-172.79 884.01,-169.36 884.05,-176.36"/>
</g>
<!-- numpy&#45;&gt;matplotlib_pyplot -->
<g id="edge33" class="edge">
<title>numpy&#45;&gt;matplotlib_pyplot</title><style>.edge>path:hover{stroke-width:8}</style>
<path fill="none" stroke="black" d="M84.3,-586.11C68.19,-574.12 69.36,-550.77 73.91,-531.69"/>
<polygon fill="#06f9f9" stroke="black" points="77.32,-532.48 76.61,-521.91 70.58,-530.61 77.32,-532.48"/>
</g>
<!-- shapely_geometry_linestring -->
<g id="node31" class="node">
<title>shapely_geometry_linestring</title><style>.edge>path:hover{stroke-width:8}</style>
<ellipse fill="#993ab0" stroke="black" cx="726.3" cy="-587.11" rx="45.92" ry="28.98"/>
<text text-anchor="middle" x="726.3" y="-595.61" font-family="Helvetica,sans-Serif" font-size="10.00" fill="#ffffff">shapely.</text>
<text text-anchor="middle" x="726.3" y="-584.61" font-family="Helvetica,sans-Serif" font-size="10.00" fill="#ffffff">geometry.</text>
<text text-anchor="middle" x="726.3" y="-573.61" font-family="Helvetica,sans-Serif" font-size="10.00" fill="#ffffff">linestring</text>
</g>
<!-- numpy&#45;&gt;shapely_geometry_linestring -->
<g id="edge34" class="edge">
<title>numpy&#45;&gt;shapely_geometry_linestring</title><style>.edge>path:hover{stroke-width:8}</style>
<path fill="none" stroke="black" d="M726.3,-669.1C708.52,-665.38 708.68,-644.79 713.21,-625.31"/>
<polygon fill="#06f9f9" stroke="black" points="716.6,-626.18 715.81,-615.61 709.83,-624.36 716.6,-626.18"/>
</g>
<!-- sklearn -->
<g id="node32" class="node">
<title>sklearn</title><style>.edge>path:hover{stroke-width:8}</style>
<ellipse fill="#b83d87" stroke="black" cx="1065.3" cy="-670.1" rx="31.4" ry="18"/>
<text text-anchor="middle" x="1065.3" y="-667.6" font-family="Helvetica,sans-Serif" font-size="10.00" fill="#ffffff">sklearn</text>
</g>
<!-- numpy&#45;&gt;sklearn -->
<g id="edge35" class="edge">
<title>numpy&#45;&gt;sklearn</title><style>.edge>path:hover{stroke-width:8}</style>
<path fill="none" stroke="black" d="M1065.3,-724.1C1061.26,-716.32 1060.23,-706.99 1060.52,-698.34"/>
<polygon fill="#06f9f9" stroke="black" points="1064.02,-698.55 1061.43,-688.28 1057.05,-697.92 1064.02,-698.55"/>
</g>
<!-- photutils -->
<g id="node21" class="node">
<title>photutils</title><style>.edge>path:hover{stroke-width:8}</style>
<ellipse fill="#3a69b0" stroke="black" cx="1471.3" cy="-250.07" rx="34.96" ry="18"/>
<text text-anchor="middle" x="1471.3" y="-247.57" font-family="Helvetica,sans-Serif" font-size="10.00" fill="#ffffff">photutils</text>
</g>
<!-- photutils&#45;&gt;jwstnoobfriend_reduction -->
<g id="edge36" class="edge">
<title>photutils&#45;&gt;jwstnoobfriend_reduction</title><style>.edge>path:hover{stroke-width:8}</style>
<path fill="none" stroke="black" d="M1445.57,-237.78C1402.95,-218.93 1321.26,-182.19 1310.3,-172.64"/>
</g>
<!-- photutils_detection -->
<g id="node22" class="node">
<title>photutils_detection</title><style>.edge>path:hover{stroke-width:8}</style>
<ellipse fill="#4778c2" stroke="black" cx="1359.3" cy="-336.27" rx="43.68" ry="21.43"/>
<text text-anchor="middle" x="1359.3" y="-339.27" font-family="Helvetica,sans-Serif" font-size="10.00" fill="#ffffff">photutils.</text>
<text text-anchor="middle" x="1359.3" y="-328.27" font-family="Helvetica,sans-Serif" font-size="10.00" fill="#ffffff">detection</text>
</g>
<!-- photutils_detection&#45;&gt;jwstnoobfriend_reduction -->
<g id="edge37" class="edge">
<title>photutils_detection&#45;&gt;jwstnoobfriend_reduction</title><style>.edge>path:hover{stroke-width:8}</style>
<path fill="none" stroke="black" d="M1372.98,-315.96C1386.75,-293.95 1403.99,-257.34 1389.3,-228.85 1369.54,-190.55 1342.79,-200.94 1310.3,-172.64"/>
</g>
<!-- photutils_detection&#45;&gt;photutils -->
<g id="edge38" class="edge">
<title>photutils_detection&#45;&gt;photutils</title><style>.edge>path:hover{stroke-width:8}</style>
<path fill="none" stroke="black" d="M1382.23,-318.03C1400.21,-304.51 1425.28,-285.66 1444.24,-271.41"/>
<polygon fill="#4778c2" stroke="black" points="1446.59,-274.02 1452.48,-265.21 1442.38,-268.43 1446.59,-274.02"/>
</g>
<!-- photutils_segmentation -->
<g id="node23" class="node">
<title>photutils_segmentation</title><style>.edge>path:hover{stroke-width:8}</style>
<ellipse fill="#4778c2" stroke="black" cx="1480.3" cy="-336.27" rx="59.29" ry="21.43"/>
<text text-anchor="middle" x="1480.3" y="-339.27" font-family="Helvetica,sans-Serif" font-size="10.00" fill="#ffffff">photutils.</text>
<text text-anchor="middle" x="1480.3" y="-328.27" font-family="Helvetica,sans-Serif" font-size="10.00" fill="#ffffff">segmentation</text>
</g>
<!-- photutils_segmentation&#45;&gt;jwstnoobfriend_reduction -->
<g id="edge39" class="edge">
<title>photutils_segmentation&#45;&gt;jwstnoobfriend_reduction</title><style>.edge>path:hover{stroke-width:8}</style>
<path fill="none" stroke="black" d="M1496.58,-315.81C1513.59,-292.99 1535.23,-254.99 1515.3,-228.85 1458,-153.73 1381.01,-235.29 1310.3,-172.64"/>
</g>
<!-- photutils_segmentation&#45;&gt;photutils -->
<g id="edge40" class="edge">
<title>photutils_segmentation&#45;&gt;photutils</title><style>.edge>path:hover{stroke-width:8}</style>
<path fill="none" stroke="black" d="M1478.12,-314.89C1476.95,-303.93 1475.49,-290.27 1474.22,-278.41"/>
<polygon fill="#4778c2" stroke="black" points="1477.66,-277.71 1473.12,-268.14 1470.7,-278.46 1477.66,-277.71"/>
</g>
<!-- rich -->
<g id="node24" class="node">
<title>rich</title><style>.edge>path:hover{stroke-width:8}</style>
<ellipse fill="#380ce9" stroke="black" cx="325.3" cy="-422.48" rx="27" ry="18"/>
<text text-anchor="middle" x="325.3" y="-419.98" font-family="Helvetica,sans-Serif" font-size="10.00" fill="#ffffff">rich</text>
</g>
<!-- rich&#45;&gt;jwstnoobfriend_box -->
<g id="edge41" class="edge">
<title>rich&#45;&gt;jwstnoobfriend_box</title><style>.edge>path:hover{stroke-width:8}</style>
<path fill="none" stroke="black" d="M330.42,-404.42C337.57,-381.95 351.05,-344.45 363.3,-337.27"/>
</g>
<!-- rich&#45;&gt;jwstnoobfriend_manager -->
<g id="edge42" class="edge">
<title>rich&#45;&gt;jwstnoobfriend_manager</title><style>.edge>path:hover{stroke-width:8}</style>
<path fill="none" stroke="black" d="M322.35,-404.56C320,-387.22 318.16,-359.7 325.3,-337.27"/>
</g>
<!-- rich_console -->
<g id="node25" class="node">
<title>rich_console</title><style>.edge>path:hover{stroke-width:8}</style>
<ellipse fill="#4219e6" stroke="black" cx="412.3" cy="-500.9" rx="44.3" ry="18"/>
<text text-anchor="middle" x="412.3" y="-498.4" font-family="Helvetica,sans-Serif" font-size="10.00" fill="#ffffff">rich.console</text>
</g>
<!-- rich_console&#45;&gt;jwstnoobfriend_box -->
<g id="edge43" class="edge">
<title>rich_console&#45;&gt;jwstnoobfriend_box</title><style>.edge>path:hover{stroke-width:8}</style>
<path fill="none" stroke="black" d="M401.74,-483.4C393.09,-468.43 381.99,-445.42 380.3,-423.48"/>
<path fill="none" stroke="black" d="M380.3,-421.48C377.36,-383.41 330.36,-356.58 363.3,-337.27"/>
</g>
<!-- rich_console&#45;&gt;rich -->
<g id="edge44" class="edge">
<title>rich_console&#45;&gt;rich</title><style>.edge>path:hover{stroke-width:8}</style>
<path fill="none" stroke="black" d="M394.27,-484.07C381,-472.41 362.84,-456.46 348.49,-443.85"/>
<polygon fill="#4219e6" stroke="black" points="350.79,-441.21 340.97,-437.24 346.17,-446.47 350.79,-441.21"/>
</g>
<!-- rich_panel -->
<g id="node26" class="node">
<title>rich_panel</title><style>.edge>path:hover{stroke-width:8}</style>
<ellipse fill="#5940c0" stroke="black" cx="537.3" cy="-422.48" rx="38.03" ry="18"/>
<text text-anchor="middle" x="537.3" y="-419.98" font-family="Helvetica,sans-Serif" font-size="10.00" fill="#ffffff">rich.panel</text>
</g>
<!-- rich_console&#45;&gt;rich_panel -->
<g id="edge45" class="edge">
<title>rich_console&#45;&gt;rich_panel</title><style>.edge>path:hover{stroke-width:8}</style>
<path fill="none" stroke="black" d="M435.81,-485.53C455.7,-473.37 484.36,-455.84 506.15,-442.52"/>
<polygon fill="#4219e6" stroke="black" points="508.03,-445.47 514.73,-437.27 504.37,-439.5 508.03,-445.47"/>
</g>
<!-- rich_progress -->
<g id="node27" class="node">
<title>rich_progress</title><style>.edge>path:hover{stroke-width:8}</style>
<ellipse fill="#55439d" stroke="black" cx="438.3" cy="-336.27" rx="47.19" ry="18"/>
<text text-anchor="middle" x="438.3" y="-333.77" font-family="Helvetica,sans-Serif" font-size="10.00" fill="#ffffff">rich.progress</text>
</g>
<!-- rich_console&#45;&gt;rich_progress -->
<g id="edge46" class="edge">
<title>rich_console&#45;&gt;rich_progress</title><style>.edge>path:hover{stroke-width:8}</style>
<path fill="none" stroke="black" d="M380.3,-421.48C378.45,-397.6 394.66,-375.5 410.41,-359.94"/>
<polygon fill="#4219e6" stroke="black" points="413.09,-362.22 418.02,-352.84 408.32,-357.1 413.09,-362.22"/>
</g>
<!-- rich_table -->
<g id="node28" class="node">
<title>rich_table</title><style>.edge>path:hover{stroke-width:8}</style>
<ellipse fill="#4b2fbc" stroke="black" cx="444.3" cy="-422.48" rx="36.49" ry="18"/>
<text text-anchor="middle" x="444.3" y="-419.98" font-family="Helvetica,sans-Serif" font-size="10.00" fill="#ffffff">rich.table</text>
</g>
<!-- rich_console&#45;&gt;rich_table -->
<g id="edge47" class="edge">
<title>rich_console&#45;&gt;rich_table</title><style>.edge>path:hover{stroke-width:8}</style>
<path fill="none" stroke="black" d="M419.4,-482.94C423.46,-473.24 428.64,-460.87 433.22,-449.92"/>
<polygon fill="#4219e6" stroke="black" points="436.58,-450.97 437.21,-440.39 430.12,-448.26 436.58,-450.97"/>
</g>
<!-- rich_panel&#45;&gt;jwstnoobfriend_box -->
<g id="edge48" class="edge">
<title>rich_panel&#45;&gt;jwstnoobfriend_box</title><style>.edge>path:hover{stroke-width:8}</style>
<path fill="none" stroke="black" d="M564.87,-409.78C615.81,-388.1 720.07,-343.3 726.3,-337.27"/>
</g>
<!-- rich_panel&#45;&gt;rich_progress -->
<g id="edge49" class="edge">
<title>rich_panel&#45;&gt;rich_progress</title><style>.edge>path:hover{stroke-width:8}</style>
<path fill="none" stroke="black" d="M519.6,-406.42C504.4,-393.49 482.26,-374.67 464.92,-359.92"/>
<polygon fill="#5940c0" stroke="black" points="466.73,-356.86 456.85,-353.05 462.2,-362.2 466.73,-356.86"/>
</g>
<!-- rich_progress&#45;&gt;jwstnoobfriend_manager -->
<g id="edge50" class="edge">
<title>rich_progress&#45;&gt;jwstnoobfriend_manager</title><style>.edge>path:hover{stroke-width:8}</style>
<path fill="none" stroke="black" d="M400.59,-325.26C361.44,-312.68 308.12,-288.14 325.3,-251.07"/>
</g>
<!-- rich_table&#45;&gt;jwstnoobfriend_box -->
<g id="edge51" class="edge">
<title>rich_table&#45;&gt;jwstnoobfriend_box</title><style>.edge>path:hover{stroke-width:8}</style>
<path fill="none" stroke="black" d="M469.81,-409.46C476.41,-406.57 483.55,-403.64 490.3,-401.26 592.77,-365.08 648.25,-412.89 726.3,-337.27"/>
<path fill="none" stroke="black" d="M726.3,-335.27C757.95,-304.6 802.99,-282.78 838.31,-269.05"/>
<polygon fill="#4b2fbc" stroke="black" points="839.88,-272.2 848,-265.39 837.41,-265.65 839.88,-272.2"/>
</g>
<!-- rich_table&#45;&gt;rich_progress -->
<g id="edge52" class="edge">
<title>rich_table&#45;&gt;rich_progress</title><style>.edge>path:hover{stroke-width:8}</style>
<path fill="none" stroke="black" d="M443.08,-404.44C442.27,-393.02 441.18,-377.74 440.25,-364.64"/>
<polygon fill="#4b2fbc" stroke="black" points="443.71,-364.01 439.51,-354.29 436.73,-364.51 443.71,-364.01"/>
</g>
<!-- shapely -->
<g id="node29" class="node">
<title>shapely</title><style>.edge>path:hover{stroke-width:8}</style>
<ellipse fill="#ae24d0" stroke="black" cx="909.3" cy="-422.48" rx="32.25" ry="18"/>
<text text-anchor="middle" x="909.3" y="-419.98" font-family="Helvetica,sans-Serif" font-size="10.00" fill="#ffffff">shapely</text>
</g>
<!-- shapely&#45;&gt;jwstnoobfriend_box -->
<g id="edge53" class="edge">
<title>shapely&#45;&gt;jwstnoobfriend_box</title><style>.edge>path:hover{stroke-width:8}</style>
<path fill="none" stroke="black" d="M885.79,-410.05C879.78,-407.16 873.31,-404.07 867.3,-401.26 804.95,-372.12 676.87,-385.16 726.3,-337.27"/>
</g>
<!-- shapely_geometry -->
<g id="node30" class="node">
<title>shapely_geometry</title><style>.edge>path:hover{stroke-width:8}</style>
<ellipse fill="#a723c8" stroke="black" cx="726.3" cy="-500.9" rx="45.01" ry="21.43"/>
<text text-anchor="middle" x="726.3" y="-503.9" font-family="Helvetica,sans-Serif" font-size="10.00" fill="#ffffff">shapely.</text>
<text text-anchor="middle" x="726.3" y="-492.9" font-family="Helvetica,sans-Serif" font-size="10.00" fill="#ffffff">geometry</text>
</g>
<!-- shapely_geometry&#45;&gt;jwstnoobfriend_box -->
<g id="edge54" class="edge">
<title>shapely_geometry&#45;&gt;jwstnoobfriend_box</title><style>.edge>path:hover{stroke-width:8}</style>
<path fill="none" stroke="black" d="M723.92,-479.53C722.68,-463.98 722.17,-442.13 726.3,-423.48"/>
</g>
<!-- shapely_geometry&#45;&gt;shapely -->
<g id="edge55" class="edge">
<title>shapely_geometry&#45;&gt;shapely</title><style>.edge>path:hover{stroke-width:8}</style>
<path fill="none" stroke="black" d="M760.76,-486.93C789.48,-475.93 831.35,-459.48 867.3,-443.69 870.33,-442.35 873.47,-440.93 876.61,-439.48"/>
<polygon fill="#a723c8" stroke="black" points="878.33,-442.53 885.88,-435.1 875.34,-436.2 878.33,-442.53"/>
</g>
<!-- shapely_geometry_linestring&#45;&gt;jwstnoobfriend_box -->
<g id="edge56" class="edge">
<title>shapely_geometry_linestring&#45;&gt;jwstnoobfriend_box</title><style>.edge>path:hover{stroke-width:8}</style>
<path fill="none" stroke="black" d="M700.13,-563.25C689.32,-552.07 677.98,-537.68 672.3,-522.11 665.82,-504.4 665.2,-497.16 672.3,-479.69 685.33,-447.59 718.81,-457.3 726.3,-423.48"/>
<path fill="none" stroke="black" d="M726.3,-421.48C732.78,-384.62 699.42,-363.31 726.3,-337.27"/>
</g>
<!-- shapely_geometry_linestring&#45;&gt;shapely_geometry -->
<g id="edge57" class="edge">
<title>shapely_geometry_linestring&#45;&gt;shapely_geometry</title><style>.edge>path:hover{stroke-width:8}</style>
<path fill="none" stroke="black" d="M726.3,-558.07C726.3,-549.86 726.3,-540.85 726.3,-532.49"/>
<polygon fill="#993ab0" stroke="black" points="729.8,-532.36 726.3,-522.36 722.8,-532.36 729.8,-532.36"/>
</g>
<!-- sklearn&#45;&gt;jwstnoobfriend_manager -->
<g id="edge58" class="edge">
<title>sklearn&#45;&gt;jwstnoobfriend_manager</title><style>.edge>path:hover{stroke-width:8}</style>
<path fill="none" stroke="black" d="M1063.26,-651.92C1056.85,-599.56 1035.36,-437.63 1000.3,-307.28 990.56,-271.08 977.77,-229.92 969.08,-202.74"/>
<polygon fill="#b83d87" stroke="black" points="972.36,-201.5 965.97,-193.05 965.69,-203.64 972.36,-201.5"/>
</g>
<!-- sklearn_neighbors -->
<g id="node33" class="node">
<title>sklearn_neighbors</title><style>.edge>path:hover{stroke-width:8}</style>
<ellipse fill="#b6538e" stroke="black" cx="65.3" cy="-336.27" rx="45.92" ry="21.43"/>
<text text-anchor="middle" x="65.3" y="-339.27" font-family="Helvetica,sans-Serif" font-size="10.00" fill="#ffffff">sklearn.</text>
<text text-anchor="middle" x="65.3" y="-328.27" font-family="Helvetica,sans-Serif" font-size="10.00" fill="#ffffff">neighbors</text>
</g>
<!-- sklearn_neighbors&#45;&gt;jwstnoobfriend_manager -->
<g id="edge59" class="edge">
<title>sklearn_neighbors&#45;&gt;jwstnoobfriend_manager</title><style>.edge>path:hover{stroke-width:8}</style>
<path fill="none" stroke="black" d="M46.29,-316.56C29.78,-298.06 11,-269.87 28.3,-251.07"/>
</g>
</g>
</svg>
